<?xml version="1.0" encoding="UTF-8" standalone="no"?>
<!DOCTYPE svg PUBLIC "-//W3C//DTD SVG 1.1//EN" "http://www.w3.org/Graphics/SVG/1.1/DTD/svg11.dtd">
<svg width="100%" height="100%" viewBox="0 0 1280 1280" version="1.1" xmlns="http://www.w3.org/2000/svg" xmlns:xlink="http://www.w3.org/1999/xlink" xml:space="preserve" xmlns:serif="http://www.serif.com/" style="fill-rule:evenodd;clip-rule:evenodd;stroke-linecap:round;stroke-linejoin:round;stroke-miterlimit:1.5;">
    <rect id="ArtBoard1" x="0" y="0" width="1280" height="1280" style="fill:none;"/>
    <g id="ArtBoard11" serif:id="ArtBoard1">
        <g transform="matrix(1,0,0,1,-25.8748,-21.2922)">
            <rect x="200.577" y="320.999" width="579.05" height="663.197" style="fill:rgb(235,235,235);stroke:black;stroke-width:1.87px;"/>
        </g>
        <rect x="222.131" y="874.245" width="156.51" height="74.503" style="fill:white;stroke:black;stroke-width:14.58px;"/>
        <g transform="matrix(1,0,0,1,191.208,291.257)">
            <path d="M271.244,351.401C277.784,351.401 283.095,356.843 283.095,363.546C283.095,370.248 277.784,375.69 271.244,375.69C264.703,375.69 259.393,370.248 259.393,363.546C259.393,356.843 264.703,351.401 271.244,351.401ZM271.244,357.473C274.514,357.473 277.169,360.194 277.169,363.546C277.169,366.897 274.514,369.618 271.244,369.618C267.973,369.618 265.318,366.897 265.318,363.546C265.318,360.194 267.973,357.473 271.244,357.473Z" style="stroke:black;stroke-width:1.87px;"/>
        </g>
        <g transform="matrix(1,0,0,1,191.208,334.955)">
            <path d="M271.244,351.401C277.784,351.401 283.095,356.843 283.095,363.546C283.095,370.248 277.784,375.69 271.244,375.69C264.703,375.69 259.393,370.248 259.393,363.546C259.393,356.843 264.703,351.401 271.244,351.401ZM271.244,357.473C274.514,357.473 277.169,360.194 277.169,363.546C277.169,366.897 274.514,369.618 271.244,369.618C267.973,369.618 265.318,366.897 265.318,363.546C265.318,360.194 267.973,357.473 271.244,357.473Z" style="stroke:black;stroke-width:1.87px;"/>
        </g>
        <g transform="matrix(1,0,0,1,191.208,378.652)">
            <path d="M271.244,351.401C277.784,351.401 283.095,356.843 283.095,363.546C283.095,370.248 277.784,375.69 271.244,375.69C264.703,375.69 259.393,370.248 259.393,363.546C259.393,356.843 264.703,351.401 271.244,351.401ZM271.244,357.473C274.514,357.473 277.169,360.194 277.169,363.546C277.169,366.897 274.514,369.618 271.244,369.618C267.973,369.618 265.318,366.897 265.318,363.546C265.318,360.194 267.973,357.473 271.244,357.473Z" style="stroke:black;stroke-width:1.87px;"/>
        </g>
        <g transform="matrix(1,0,0,1,191.208,422.35)">
            <path d="M271.244,351.401C277.784,351.401 283.095,356.843 283.095,363.546C283.095,370.248 277.784,375.69 271.244,375.69C264.703,375.69 259.393,370.248 259.393,363.546C259.393,356.843 264.703,351.401 271.244,351.401ZM271.244,357.473C274.514,357.473 277.169,360.194 277.169,363.546C277.169,366.897 274.514,369.618 271.244,369.618C267.973,369.618 265.318,366.897 265.318,363.546C265.318,360.194 267.973,357.473 271.244,357.473Z" style="stroke:black;stroke-width:1.87px;"/>
        </g>
        <g transform="matrix(1,0,0,1,191.208,203.862)">
            <path d="M271.244,351.401C277.784,351.401 283.095,356.843 283.095,363.546C283.095,370.248 277.784,375.69 271.244,375.69C264.703,375.69 259.393,370.248 259.393,363.546C259.393,356.843 264.703,351.401 271.244,351.401ZM271.244,357.473C274.514,357.473 277.169,360.194 277.169,363.546C277.169,366.897 274.514,369.618 271.244,369.618C267.973,369.618 265.318,366.897 265.318,363.546C265.318,360.194 267.973,357.473 271.244,357.473Z" style="stroke:black;stroke-width:1.87px;"/>
        </g>
        <g transform="matrix(1,0,0,1,247.836,270.529)">
            <path d="M271.244,351.401C277.784,351.401 283.095,356.843 283.095,363.546C283.095,370.248 277.784,375.69 271.244,375.69C264.703,375.69 259.393,370.248 259.393,363.546C259.393,356.843 264.703,351.401 271.244,351.401ZM271.244,357.473C274.514,357.473 277.169,360.194 277.169,363.546C277.169,366.897 274.514,369.618 271.244,369.618C267.973,369.618 265.318,366.897 265.318,363.546C265.318,360.194 267.973,357.473 271.244,357.473Z" style="stroke:black;stroke-width:1.87px;"/>
        </g>
        <g transform="matrix(1,0,0,1,247.836,314.364)">
            <path d="M271.244,351.401C277.784,351.401 283.095,356.843 283.095,363.546C283.095,370.248 277.784,375.69 271.244,375.69C264.703,375.69 259.393,370.248 259.393,363.546C259.393,356.843 264.703,351.401 271.244,351.401ZM271.244,357.473C274.514,357.473 277.169,360.194 277.169,363.546C277.169,366.897 274.514,369.618 271.244,369.618C267.973,369.618 265.318,366.897 265.318,363.546C265.318,360.194 267.973,357.473 271.244,357.473Z" style="stroke:black;stroke-width:1.87px;"/>
        </g>
        <g transform="matrix(1,0,0,1,247.836,358.198)">
            <path d="M271.244,351.401C277.784,351.401 283.095,356.843 283.095,363.546C283.095,370.248 277.784,375.69 271.244,375.69C264.703,375.69 259.393,370.248 259.393,363.546C259.393,356.843 264.703,351.401 271.244,351.401ZM271.244,357.473C274.514,357.473 277.169,360.194 277.169,363.546C277.169,366.897 274.514,369.618 271.244,369.618C267.973,369.618 265.318,366.897 265.318,363.546C265.318,360.194 267.973,357.473 271.244,357.473Z" style="stroke:black;stroke-width:1.87px;"/>
        </g>
        <g transform="matrix(1,0,0,1,247.836,402.032)">
            <path d="M271.244,351.401C277.784,351.401 283.095,356.843 283.095,363.546C283.095,370.248 277.784,375.69 271.244,375.69C264.703,375.69 259.393,370.248 259.393,363.546C259.393,356.843 264.703,351.401 271.244,351.401ZM271.244,357.473C274.514,357.473 277.169,360.194 277.169,363.546C277.169,366.897 274.514,369.618 271.244,369.618C267.973,369.618 265.318,366.897 265.318,363.546C265.318,360.194 267.973,357.473 271.244,357.473Z" style="stroke:black;stroke-width:1.87px;"/>
        </g>
        <g transform="matrix(1,0,0,1,247.836,226.695)">
            <path d="M271.244,351.401C277.784,351.401 283.095,356.843 283.095,363.546C283.095,370.248 277.784,375.69 271.244,375.69C264.703,375.69 259.393,370.248 259.393,363.546C259.393,356.843 264.703,351.401 271.244,351.401ZM271.244,357.473C274.514,357.473 277.169,360.194 277.169,363.546C277.169,366.897 274.514,369.618 271.244,369.618C267.973,369.618 265.318,366.897 265.318,363.546C265.318,360.194 267.973,357.473 271.244,357.473Z" style="stroke:black;stroke-width:1.87px;"/>
        </g>
        <g transform="matrix(1,0,0,1,191.208,247.559)">
            <path d="M271.244,351.401C277.784,351.401 283.095,356.843 283.095,363.546C283.095,370.248 277.784,375.69 271.244,375.69C264.703,375.69 259.393,370.248 259.393,363.546C259.393,356.843 264.703,351.401 271.244,351.401ZM271.244,357.473C274.514,357.473 277.169,360.194 277.169,363.546C277.169,366.897 274.514,369.618 271.244,369.618C267.973,369.618 265.318,366.897 265.318,363.546C265.318,360.194 267.973,357.473 271.244,357.473Z" style="stroke:black;stroke-width:1.87px;"/>
        </g>
        <g transform="matrix(0.716902,0,0,0.724405,365.431,111.17)">
            <g transform="matrix(50,0,0,50,343.88,436.122)">
            </g>
            <text x="232.772px" y="436.122px" style="font-family:'ArialMT', 'Arial', sans-serif;font-size:50px;">GND</text>
        </g>
        <g transform="matrix(0.716902,0,0,0.724405,468.657,111.17)">
            <g transform="matrix(50,0,0,50,323.128,436.122)">
            </g>
            <text x="232.772px" y="436.122px" style="font-family:'ArialMT', 'Arial', sans-serif;font-size:50px;">+5V</text>
        </g>
        <g transform="matrix(1,0,0,1.01047,460.461,427.099)">
            <g transform="matrix(35.8451,0,0,35.8451,45.7865,0)">
            </g>
            <text x="0px" y="0px" style="font-family:'ArialMT', 'Arial', sans-serif;font-size:35.845px;">Dir</text>
        </g>
        <g transform="matrix(1,0,0,1.01047,343.601,427.099)">
            <g transform="matrix(35.8451,0,0,35.8451,93.6383,0)">
            </g>
            <text x="0px" y="0px" style="font-family:'ArialMT', 'Arial', sans-serif;font-size:35.845px;">Brake</text>
        </g>
        <g transform="matrix(1,0,0,1,305.756,0.795696)">
            <path d="M271.244,351.401C277.784,351.401 283.095,356.843 283.095,363.546C283.095,370.248 277.784,375.69 271.244,375.69C264.703,375.69 259.393,370.248 259.393,363.546C259.393,356.843 264.703,351.401 271.244,351.401ZM271.244,357.473C274.514,357.473 277.169,360.194 277.169,363.546C277.169,366.897 274.514,369.618 271.244,369.618C267.973,369.618 265.318,366.897 265.318,363.546C265.318,360.194 267.973,357.473 271.244,357.473Z" style="stroke:black;stroke-width:1.87px;"/>
        </g>
        <g transform="matrix(1,0,0,1,203.837,0.795696)">
            <path d="M271.244,351.401C277.784,351.401 283.095,356.843 283.095,363.546C283.095,370.248 277.784,375.69 271.244,375.69C264.703,375.69 259.393,370.248 259.393,363.546C259.393,356.843 264.703,351.401 271.244,351.401ZM271.244,357.473C274.514,357.473 277.169,360.194 277.169,363.546C277.169,366.897 274.514,369.618 271.244,369.618C267.973,369.618 265.318,366.897 265.318,363.546C265.318,360.194 267.973,357.473 271.244,357.473Z" style="stroke:black;stroke-width:1.87px;"/>
        </g>
        <g transform="matrix(1,0,0,1,101.919,0.795696)">
            <path d="M271.244,351.401C277.784,351.401 283.095,356.843 283.095,363.546C283.095,370.248 277.784,375.69 271.244,375.69C264.703,375.69 259.393,370.248 259.393,363.546C259.393,356.843 264.703,351.401 271.244,351.401ZM271.244,357.473C274.514,357.473 277.169,360.194 277.169,363.546C277.169,366.897 274.514,369.618 271.244,369.618C267.973,369.618 265.318,366.897 265.318,363.546C265.318,360.194 267.973,357.473 271.244,357.473Z" style="stroke:black;stroke-width:1.87px;"/>
        </g>
        <g transform="matrix(1,0,0,1,0,0.795696)">
            <path d="M271.244,351.401C277.784,351.401 283.095,356.843 283.095,363.546C283.095,370.248 277.784,375.69 271.244,375.69C264.703,375.69 259.393,370.248 259.393,363.546C259.393,356.843 264.703,351.401 271.244,351.401ZM271.244,357.473C274.514,357.473 277.169,360.194 277.169,363.546C277.169,366.897 274.514,369.618 271.244,369.618C267.973,369.618 265.318,366.897 265.318,363.546C265.318,360.194 267.973,357.473 271.244,357.473Z" style="stroke:black;stroke-width:1.87px;"/>
        </g>
        <g transform="matrix(1,0,0,1,407.675,0.795696)">
            <path d="M271.244,351.401C277.784,351.401 283.095,356.843 283.095,363.546C283.095,370.248 277.784,375.69 271.244,375.69C264.703,375.69 259.393,370.248 259.393,363.546C259.393,356.843 264.703,351.401 271.244,351.401ZM271.244,357.473C274.514,357.473 277.169,360.194 277.169,363.546C277.169,366.897 274.514,369.618 271.244,369.618C267.973,369.618 265.318,366.897 265.318,363.546C265.318,360.194 267.973,357.473 271.244,357.473Z" style="stroke:black;stroke-width:1.87px;"/>
        </g>
        <g transform="matrix(0.716902,0,0,0.724405,66.9892,111.17)">
            <g transform="matrix(50,0,0,50,354.964,436.122)">
            </g>
            <text x="232.772px" y="436.122px" style="font-family:'ArialMT', 'Arial', sans-serif;font-size:50px;">PWM</text>
        </g>
        <g transform="matrix(0.696836,0.0227387,-0.0227387,0.696836,196.02,136.11)">
            <g transform="matrix(50,0,0,50,411.373,554.876)">
            </g>
            <text x="383.566px" y="554.876px" style="font-family:'ArialMT', 'Arial', sans-serif;font-size:50px;">1</text>
        </g>
        <rect x="447.376" y="552.389" width="26.155" height="24.525" style="fill:white;stroke:black;stroke-width:14.58px;"/>
        <g transform="matrix(0.761157,0,0,0.761157,114.909,195.353)">
            <g transform="matrix(50,0,0,50,409.606,736.892)">
            </g>
            <text x="381.798px" y="736.892px" style="font-family:'ArialMT', 'Arial', sans-serif;font-size:50px;">8</text>
        </g>
        <g transform="matrix(-0.00526013,-0.999986,0.999986,-0.00526013,-123.063,1080.69)">
            <g transform="matrix(50,0,0,50,625.007,825.218)">
            </g>
            <text x="199.787px" y="825.218px" style="font-family:'ArialMT', 'Arial', sans-serif;font-size:50px;">LMD18200T<tspan x="472.175px 488.825px " y="825.218px 825.218px ">-M</tspan>odul</text>
        </g>
        <g transform="matrix(1,0,0,1,191.532,0)">
            <rect x="222.131" y="874.245" width="156.51" height="74.503" style="fill:white;stroke:black;stroke-width:14.58px;"/>
        </g>
        <g transform="matrix(1,0,0,0.667681,0,290.247)">
            <rect x="220.44" y="873.401" width="161.261" height="27.713" style="fill:white;stroke:black;stroke-width:17.15px;"/>
        </g>
        <g transform="matrix(1,0,0,0.667681,190.027,290.247)">
            <rect x="220.44" y="873.401" width="161.261" height="27.713" style="fill:white;stroke:black;stroke-width:17.15px;"/>
        </g>
        <path d="M268.681,906.132C278.526,906.132 286.519,913.205 286.519,921.916C286.519,930.627 278.526,937.7 268.681,937.7C258.836,937.7 250.844,930.627 250.844,921.916C250.844,913.205 258.836,906.132 268.681,906.132ZM268.681,914.024C273.604,914.024 277.6,917.56 277.6,921.916C277.6,926.272 273.604,929.808 268.681,929.808C263.759,929.808 259.762,926.272 259.762,921.916C259.762,917.56 263.759,914.024 268.681,914.024Z" style="fill:rgb(23,0,0);"/>
        <g transform="matrix(1,0,0,1,67.5266,0)">
            <path d="M268.681,906.132C278.526,906.132 286.519,913.205 286.519,921.916C286.519,930.627 278.526,937.7 268.681,937.7C258.836,937.7 250.844,930.627 250.844,921.916C250.844,913.205 258.836,906.132 268.681,906.132ZM268.681,914.024C273.604,914.024 277.6,917.56 277.6,921.916C277.6,926.272 273.604,929.808 268.681,929.808C263.759,929.808 259.762,926.272 259.762,921.916C259.762,917.56 263.759,914.024 268.681,914.024Z" style="fill:rgb(23,0,0);"/>
        </g>
        <g transform="matrix(1,0,0,1,185.342,0)">
            <path d="M268.681,906.132C278.526,906.132 286.519,913.205 286.519,921.916C286.519,930.627 278.526,937.7 268.681,937.7C258.836,937.7 250.844,930.627 250.844,921.916C250.844,913.205 258.836,906.132 268.681,906.132ZM268.681,914.024C273.604,914.024 277.6,917.56 277.6,921.916C277.6,926.272 273.604,929.808 268.681,929.808C263.759,929.808 259.762,926.272 259.762,921.916C259.762,917.56 263.759,914.024 268.681,914.024Z" style="fill:rgb(23,0,0);"/>
        </g>
        <g transform="matrix(1,0,0,1,252.842,0)">
            <path d="M268.681,906.132C278.526,906.132 286.519,913.205 286.519,921.916C286.519,930.627 278.526,937.7 268.681,937.7C258.836,937.7 250.844,930.627 250.844,921.916C250.844,913.205 258.836,906.132 268.681,906.132ZM268.681,914.024C273.604,914.024 277.6,917.56 277.6,921.916C277.6,926.272 273.604,929.808 268.681,929.808C263.759,929.808 259.762,926.272 259.762,921.916C259.762,917.56 263.759,914.024 268.681,914.024Z" style="fill:rgb(23,0,0);"/>
        </g>
        <g transform="matrix(1,0,0,1,394.987,3.94094)">
            <path d="M134.497,907.744L138.284,911.339L130.388,918.834L138.284,926.33L134.497,929.925L126.601,922.429L118.704,929.925L114.917,926.33L122.814,918.834L114.917,911.339L118.704,907.744L126.601,915.24L134.497,907.744Z" style="fill:white;stroke:rgb(255,254,254);stroke-width:1px;"/>
        </g>
        <g transform="matrix(1,0,0,1,327.638,4.25178)">
            <path d="M134.497,907.744L138.284,911.339L130.388,918.834L138.284,926.33L134.497,929.925L126.601,922.429L118.704,929.925L114.917,926.33L122.814,918.834L114.917,911.339L118.704,907.744L126.601,915.24L134.497,907.744Z" style="fill:white;stroke:white;stroke-width:1px;"/>
        </g>
        <g transform="matrix(1,0,0,1,209.645,4.25178)">
            <path d="M134.497,907.744L138.284,911.339L130.388,918.834L138.284,926.33L134.497,929.925L126.601,922.429L118.704,929.925L114.917,926.33L122.814,918.834L114.917,911.339L118.704,907.744L126.601,915.24L134.497,907.744Z" style="fill:white;stroke:white;stroke-width:1px;"/>
        </g>
        <g transform="matrix(1,0,0,1,141.59,4.25178)">
            <path d="M134.497,907.744L138.284,911.339L130.388,918.834L138.284,926.33L134.497,929.925L126.601,922.429L118.704,929.925L114.917,926.33L122.814,918.834L114.917,911.339L118.704,907.744L126.601,915.24L134.497,907.744Z" style="fill:white;stroke:white;stroke-width:1px;"/>
        </g>
        <g transform="matrix(1,0,0,1,-13.2238,28.9298)">
            <g transform="matrix(50,0,0,50,363.676,989.085)">
            </g>
            <text x="249.76px" y="989.085px" style="font-family:'ArialMT', 'Arial', sans-serif;font-size:50px;">Gleis</text>
        </g>
        <g transform="matrix(1,0,0,1,-20,16.2522)">
            <g transform="matrix(50,0,0,50,637.751,1001.76)">
            </g>
            <text x="407.185px" y="1001.76px" style="font-family:'ArialMT', 'Arial', sans-serif;font-size:50px;">GND VDD</text>
        </g>
    </g>
</svg>
